<svg xmlns="http://www.w3.org/2000/svg" xmlns:xlink="http://www.w3.org/1999/xlink" width="1040" height="819.85"><rect width="1040" height="819.85" rx="5" ry="5" class="a"/><svg y="0%" x="0%"><circle cx="20" cy="20" r="6" fill="#ff5f58"/><circle cx="40" cy="20" r="6" fill="#ffbd2e"/><circle cx="60" cy="20" r="6" fill="#18c132"/></svg><svg height="759.85" viewBox="0 0 100 75.985" width="1000" x="15" xmlns="http://www.w3.org/2000/svg" xmlns:xlink="http://www.w3.org/1999/xlink" y="50"><style>@keyframes m{0%{transform:translateX(0)}.03%{transform:translateX(-200px)}6.87%{transform:translateX(-300px)}10.29%{transform:translateX(-400px)}17.06%{transform:translateX(-500px)}21.17%{transform:translateX(-600px)}24.59%{transform:translateX(-700px)}27.57%{transform:translateX(-800px)}36.08%{transform:translateX(-900px)}38.89%{transform:translateX(-1000px)}43%{transform:translateX(-1100px)}46.43%{transform:translateX(-1200px)}50.1%{transform:translateX(-1300px)}54.54%{transform:translateX(-1400px)}58.21%{transform:translateX(-1500px)}62.65%{transform:translateX(-1700px)}66.07%{transform:translateX(-1800px)}68.14%{transform:translateX(-1900px)}73.26%{transform:translateX(-2000px)}74.97%{transform:translateX(-2100px)}80.1%{transform:translateX(-2200px)}81.81%{transform:translateX(-2300px)}88.8%{transform:translateX(-2400px)}92.22%{transform:translateX(-2500px)}95.89%{transform:translateX(-2600px)}to{transform:translateX(-3000px)}}.a{fill:#282d35}.f,.g{font-weight:700}.f{fill:#66c2cd;white-space:pre}.g{fill:#dbab79}.g,.h,.i,.j{white-space:pre}.h{fill:#a8cc8c;font-weight:700}.i,.j{fill:#b9c0cb}.j{fill:#71bef2;font-weight:700}</style><g font-family="Monaco,Consolas,Menlo,'Bitstream Vera Sans Mono','Powerline Symbols',monospace" font-size="1.67"><defs><symbol id="1"><text y="1.67" class="f">╔══════════════════════════════════════════════════╗</text></symbol><symbol id="2"><text y="1.67" class="f">║</text><text x="4.008" y="1.67" class="f">k8s4claw</text><text x="13.026" y="1.67" class="f">—</text><text x="15.03" y="1.67" class="f">AI</text><text x="18.036" y="1.67" class="f">Agent</text><text x="24.048" y="1.67" class="f">Runtime</text><text x="32.064" y="1.67" class="f">on</text><text x="35.07" y="1.67" class="f">Kubernetes</text><text x="51.102" y="1.67" class="f">║</text></symbol><symbol id="3"><text y="1.67" class="f">║</text><text x="4.008" y="1.67" class="f">Demo:</text><text x="10.02" y="1.67" class="f">OpenClaw</text><text x="19.038" y="1.67" class="f">runtime</text><text x="27.054" y="1.67" class="f">in</text><text x="30.06" y="1.67" class="f">mock</text><text x="35.07" y="1.67" class="f">mode</text><text x="51.102" y="1.67" class="f">║</text></symbol><symbol id="4"><text y="1.67" class="f">╚══════════════════════════════════════════════════╝</text></symbol><symbol id="5"><text y="1.67" class="g">▸</text><text x="2.004" y="1.67" class="g">Step</text><text x="7.014" y="1.67" class="g">1:</text><text x="10.02" y="1.67" class="g">Build</text><text x="16.032" y="1.67" class="g">the</text><text x="20.04" y="1.67" class="g">OpenClaw</text><text x="29.058" y="1.67" class="g">runtime</text><text x="37.074" y="1.67" class="g">image</text></symbol><symbol id="6"><text y="1.67" class="h">$</text><text x="2.004" y="1.67" class="i">docker</text><text x="9.018" y="1.67" class="i">build</text><text x="15.03" y="1.67" class="i">-t</text><text x="18.036" y="1.67" class="i">k8s4claw-openclaw:dev</text><text x="40.08" y="1.67" class="i">-f</text><text x="43.086" y="1.67" class="i">runtimes/openclaw/Dockerfile</text><text x="72.144" y="1.67" class="i">runtimes/openclaw/</text><text x="91.182" y="1.67" class="i">2&gt;&amp;1</text><text x="96.192" y="1.67" class="i">|</text><text x="98.196" y="1.67" class="i">ta</text></symbol><symbol id="7"><text y="1.67" class="i">il</text><text x="3.006" y="1.67" class="i">-3</text></symbol><symbol id="8"><text y="1.67" class="i">#14</text><text x="4.008" y="1.67" class="i">writing</text><text x="12.024" y="1.67" class="i">image</text><text x="18.036" y="1.67" class="i">sha256:b8a766cc7f309e5608fce90898ad2b5b194b7c92979325a7a16e1914af0fe50d</text><text x="90.18" y="1.67" class="i">done</text></symbol><symbol id="9"><text y="1.67" class="i">#14</text><text x="4.008" y="1.67" class="i">naming</text><text x="11.022" y="1.67" class="i">to</text><text x="14.028" y="1.67" class="i">docker.io/library/k8s4claw-openclaw:dev</text><text x="54.108" y="1.67" class="i">done</text></symbol><symbol id="10"><text y="1.67" class="i">#14</text><text x="4.008" y="1.67" class="i">DONE</text><text x="9.018" y="1.67" class="i">0.0s</text></symbol><symbol id="11"><text y="1.67" class="g">▸</text><text x="2.004" y="1.67" class="g">Step</text><text x="7.014" y="1.67" class="g">2:</text><text x="10.02" y="1.67" class="g">Start</text><text x="16.032" y="1.67" class="g">runtime</text><text x="24.048" y="1.67" class="g">in</text><text x="27.054" y="1.67" class="g">mock</text><text x="32.064" y="1.67" class="g">mode</text><text x="37.074" y="1.67" class="g">(no</text><text x="41.082" y="1.67" class="g">API</text><text x="45.09" y="1.67" class="g">key</text><text x="49.098" y="1.67" class="g">needed)</text></symbol><symbol id="12"><text y="1.67" class="h">$</text><text x="2.004" y="1.67" class="i">docker</text><text x="9.018" y="1.67" class="i">run</text><text x="13.026" y="1.67" class="i">--rm</text><text x="18.036" y="1.67" class="i">-d</text><text x="21.042" y="1.67" class="i">--name</text><text x="28.056" y="1.67" class="i">demo-agent</text><text x="39.078" y="1.67" class="i">-p</text><text x="42.084" y="1.67" class="i">18900:18900</text><text x="54.108" y="1.67" class="i">-e</text><text x="57.114" y="1.67" class="i">OPENCLAW_MODE=mock</text><text x="76.152" y="1.67" class="i">k8s4claw-openclaw:dev</text></symbol><symbol id="13"><text y="1.67" class="i">8abd8b6627683d5755492931f6c45afb855fdfc5f0c39dd5bf6868d5868aa943</text></symbol><symbol id="14"><text y="1.67" class="h">$</text><text x="2.004" y="1.67" class="i">docker</text><text x="9.018" y="1.67" class="i">logs</text><text x="14.028" y="1.67" class="i">demo-agent</text></symbol><symbol id="15"><text y="1.67" class="i">{&quot;time&quot;:&quot;2026-04-11T02:22:54.897545548Z&quot;,&quot;level&quot;:&quot;INFO&quot;,&quot;msg&quot;:&quot;starting</text><text x="72.144" y="1.67" class="i">in</text><text x="75.15" y="1.67" class="i">mock</text><text x="80.16" y="1.67" class="i">mode</text><text x="85.17" y="1.67" class="i">(no</text><text x="89.178" y="1.67" class="i">Claude</text><text x="96.192" y="1.67" class="i">API</text></symbol><symbol id="16"><text y="1.67" class="i">calls)&quot;}</text></symbol><symbol id="17"><text y="1.67" class="i">{&quot;time&quot;:&quot;2026-04-11T02:22:54.897879461Z&quot;,&quot;level&quot;:&quot;INFO&quot;,&quot;msg&quot;:&quot;openclaw</text><text x="72.144" y="1.67" class="i">runtime</text><text x="80.16" y="1.67" class="i">starting&quot;,&quot;port&quot;:&quot;18</text></symbol><symbol id="18"><text y="1.67" class="i">900&quot;,&quot;model&quot;:&quot;claude-sonnet-4-20250514&quot;,&quot;mock&quot;:true}</text></symbol><symbol id="19"><text y="1.67" class="g">▸</text><text x="2.004" y="1.67" class="g">Step</text><text x="7.014" y="1.67" class="g">3:</text><text x="10.02" y="1.67" class="g">Health</text><text x="17.034" y="1.67" class="g">check</text></symbol><symbol id="20"><text y="1.67" class="h">$</text><text x="2.004" y="1.67" class="i">docker</text><text x="9.018" y="1.67" class="i">run</text><text x="13.026" y="1.67" class="i">--rm</text><text x="18.036" y="1.67" class="i">--network</text><text x="28.056" y="1.67" class="i">host</text><text x="33.066" y="1.67" class="i">curlimages/curl:latest</text><text x="56.112" y="1.67" class="i">-s</text><text x="59.118" y="1.67" class="i">http://localhost:18900/health</text></symbol><symbol id="21"><text y="1.67" class="i">ok</text></symbol><symbol id="22"><text y="1.67" class="h">$</text><text x="2.004" y="1.67" class="i">docker</text><text x="9.018" y="1.67" class="i">run</text><text x="13.026" y="1.67" class="i">--rm</text><text x="18.036" y="1.67" class="i">--network</text><text x="28.056" y="1.67" class="i">host</text><text x="33.066" y="1.67" class="i">curlimages/curl:latest</text><text x="56.112" y="1.67" class="i">-s</text><text x="59.118" y="1.67" class="i">http://localhost:18900/ready</text></symbol><symbol id="23"><text y="1.67" class="i">ready</text></symbol><symbol id="24"><text y="1.67" class="g">▸</text><text x="2.004" y="1.67" class="g">Step</text><text x="7.014" y="1.67" class="g">4:</text><text x="10.02" y="1.67" class="g">Send</text><text x="15.03" y="1.67" class="g">messages</text><text x="24.048" y="1.67" class="g">via</text><text x="28.056" y="1.67" class="g">WebSocket</text><text x="38.076" y="1.67" class="g">(IPC</text><text x="43.086" y="1.67" class="g">bus</text><text x="47.094" y="1.67" class="g">protocol)</text></symbol><symbol id="25"><text y="1.67" class="h">$</text><text x="2.004" y="1.67" class="i">#</text><text x="4.008" y="1.67" class="i">Saying</text><text x="11.022" y="1.67" class="i">hello...</text></symbol><symbol id="26"><text x="2.004" y="1.67" class="j">←</text><text x="4.008" y="1.67" class="j">Agent:</text><text x="11.022" y="1.67" class="i">Hello!</text><text x="18.036" y="1.67" class="i">I&apos;m</text><text x="22.044" y="1.67" class="i">an</text><text x="25.05" y="1.67" class="i">OpenClaw</text><text x="34.068" y="1.67" class="i">agent</text><text x="40.08" y="1.67" class="i">running</text><text x="48.096" y="1.67" class="i">on</text><text x="51.102" y="1.67" class="i">Kubernetes,</text><text x="63.126" y="1.67" class="i">managed</text><text x="71.142" y="1.67" class="i">by</text><text x="74.148" y="1.67" class="i">k8s4claw.</text><text x="84.168" y="1.67" class="i">How</text><text x="88.176" y="1.67" class="i">can</text><text x="92.184" y="1.67" class="i">I</text><text x="94.188" y="1.67" class="i">help</text><text x="99.198" y="1.67" class="i">y</text></symbol><symbol id="27"><text y="1.67" class="i">our</text><text x="4.008" y="1.67" class="i">team</text><text x="9.018" y="1.67" class="i">today?</text></symbol><symbol id="28"><text x="2.004" y="1.67" class="h">→</text><text x="4.008" y="1.67" class="h">User:</text><text x="10.02" y="1.67" class="i">What</text><text x="15.03" y="1.67" class="i">does</text><text x="20.04" y="1.67" class="i">k8s4claw</text><text x="29.058" y="1.67" class="i">do?</text></symbol><symbol id="29"><text x="2.004" y="1.67" class="j">←</text><text x="4.008" y="1.67" class="j">Agent:</text></symbol><symbol id="30"><text x="4.008" y="1.67" class="i">k8s4claw</text><text x="13.026" y="1.67" class="i">manages</text><text x="21.042" y="1.67" class="i">AI</text><text x="24.048" y="1.67" class="i">agent</text><text x="30.06" y="1.67" class="i">runtimes</text><text x="39.078" y="1.67" class="i">on</text><text x="42.084" y="1.67" class="i">Kubernetes.</text><text x="54.108" y="1.67" class="i">It</text><text x="57.114" y="1.67" class="i">handles:</text></symbol><symbol id="31"><text x="4.008" y="1.67" class="i">-</text><text x="6.012" y="1.67" class="i">StatefulSet</text><text x="18.036" y="1.67" class="i">lifecycle</text></symbol><symbol id="32"><text x="4.008" y="1.67" class="i">-</text><text x="6.012" y="1.67" class="i">IPC</text><text x="10.02" y="1.67" class="i">Bus</text><text x="14.028" y="1.67" class="i">message</text><text x="22.044" y="1.67" class="i">routing</text><text x="30.06" y="1.67" class="i">(WAL</text><text x="35.07" y="1.67" class="i">+</text><text x="37.074" y="1.67" class="i">DLQ)</text></symbol><symbol id="33"><text x="4.008" y="1.67" class="i">-</text><text x="6.012" y="1.67" class="i">Channel</text><text x="14.028" y="1.67" class="i">sidecars</text><text x="23.046" y="1.67" class="i">(Slack,</text><text x="31.062" y="1.67" class="i">Discord,</text><text x="40.08" y="1.67" class="i">Webhook)</text></symbol><symbol id="34"><text x="4.008" y="1.67" class="i">-</text><text x="6.012" y="1.67" class="i">Auto-updates</text><text x="19.038" y="1.67" class="i">with</text><text x="24.048" y="1.67" class="i">health</text><text x="31.062" y="1.67" class="i">checks</text><text x="38.076" y="1.67" class="i">and</text><text x="42.084" y="1.67" class="i">circuit</text><text x="50.1" y="1.67" class="i">breaker</text></symbol><symbol id="35"><text x="4.008" y="1.67" class="i">-</text><text x="6.012" y="1.67" class="i">PVC</text><text x="10.02" y="1.67" class="i">persistence</text><text x="22.044" y="1.67" class="i">and</text><text x="26.052" y="1.67" class="i">CSI</text><text x="30.06" y="1.67" class="i">snapshots</text></symbol><symbol id="36"><text x="2.004" y="1.67" class="h">→</text><text x="4.008" y="1.67" class="h">User:</text><text x="10.02" y="1.67" class="i">What&apos;s</text><text x="17.034" y="1.67" class="i">the</text><text x="21.042" y="1.67" class="i">status?</text></symbol><symbol id="37"><text x="4.008" y="1.67" class="i">All</text><text x="8.016" y="1.67" class="i">systems</text><text x="16.032" y="1.67" class="i">operational:</text></symbol><symbol id="38"><text x="4.008" y="1.67" class="i">-</text><text x="6.012" y="1.67" class="i">Runtime:</text><text x="15.03" y="1.67" class="i">OpenClaw</text><text x="24.048" y="1.67" class="i">v0.1.0</text></symbol><symbol id="39"><text x="4.008" y="1.67" class="i">-</text><text x="6.012" y="1.67" class="i">IPC</text><text x="10.02" y="1.67" class="i">Bus:</text><text x="15.03" y="1.67" class="i">Connected</text></symbol><symbol id="40"><text x="4.008" y="1.67" class="i">-</text><text x="6.012" y="1.67" class="i">Channels:</text><text x="16.032" y="1.67" class="i">1</text><text x="18.036" y="1.67" class="i">active</text><text x="25.05" y="1.67" class="i">(slack-team)</text></symbol><symbol id="41"><text x="4.008" y="1.67" class="i">-</text><text x="6.012" y="1.67" class="i">Uptime:</text><text x="14.028" y="1.67" class="i">2h</text><text x="17.034" y="1.67" class="i">15m</text></symbol><symbol id="42"><text x="4.008" y="1.67" class="i">-</text><text x="6.012" y="1.67" class="i">Messages</text><text x="15.03" y="1.67" class="i">processed:</text><text x="26.052" y="1.67" class="i">42</text></symbol><symbol id="43"><text y="1.67" class="g">▸</text><text x="2.004" y="1.67" class="g">Step</text><text x="7.014" y="1.67" class="g">5:</text><text x="10.02" y="1.67" class="g">Clean</text><text x="16.032" y="1.67" class="g">up</text></symbol><symbol id="44"><text y="1.67" class="h">$</text><text x="2.004" y="1.67" class="i">docker</text><text x="9.018" y="1.67" class="i">stop</text><text x="14.028" y="1.67" class="i">demo-agent</text></symbol><symbol id="45"><text y="1.67" class="i">demo-agent</text></symbol><symbol id="46"><text y="1.67" class="f">║</text><text x="4.008" y="1.67" class="f">Demo</text><text x="9.018" y="1.67" class="f">complete!</text><text x="51.102" y="1.67" class="f">║</text></symbol><symbol id="47"><text y="1.67" class="f">║</text><text x="51.102" y="1.67" class="f">║</text></symbol><symbol id="48"><text y="1.67" class="f">║</text><text x="4.008" y="1.67" class="f">To</text><text x="7.014" y="1.67" class="f">use</text><text x="11.022" y="1.67" class="f">with</text><text x="16.032" y="1.67" class="f">real</text><text x="21.042" y="1.67" class="f">Claude</text><text x="28.056" y="1.67" class="f">API:</text><text x="51.102" y="1.67" class="f">║</text></symbol><symbol id="49"><text y="1.67" class="f">║</text><text x="4.008" y="1.67" class="f">export</text><text x="11.022" y="1.67" class="f">ANTHROPIC_API_KEY=sk-ant-xxx</text><text x="51.102" y="1.67" class="f">║</text></symbol><symbol id="50"><text y="1.67" class="f">║</text><text x="4.008" y="1.67" class="f">docker</text><text x="11.022" y="1.67" class="f">run</text><text x="15.03" y="1.67" class="f">-e</text><text x="18.036" y="1.67" class="f">ANTHROPIC_API_KEY</text><text x="36.072" y="1.67" class="f">...</text><text x="51.102" y="1.67" class="f">║</text></symbol><symbol id="51"><text y="1.67" class="f">║</text><text x="4.008" y="1.67" class="f">GitHub:</text><text x="12.024" y="1.67" class="f">github.com/Prismer-AI/k8s4claw</text><text x="51.102" y="1.67" class="f">║</text></symbol><symbol id="a"><path fill="transparent" d="M0 0h100v36H0z"/></symbol><symbol id="b"><path fill="#6f7683" d="M0 0h1.102v2.171H0z"/></symbol></defs><path class="a" d="M0 0h100v75.985H0z"/><g style="animation-duration:29.299406s;animation-iteration-count:infinite;animation-name:m;animation-timing-function:steps(1,end)"><svg width="3100"><svg><use xlink:href="#a"/><use xlink:href="#b" x="-.004"/></svg><svg x="100"><use xlink:href="#a"/><use xlink:href="#b" x="-.004"/></svg><svg x="200"><use xlink:href="#a"/><use xlink:href="#b" x="-.004" y="10.83"/><use xlink:href="#1" y="2.171"/><use xlink:href="#2" y="4.342"/><use xlink:href="#3" y="6.513"/><use xlink:href="#4" y="8.684"/></svg><svg x="300"><use xlink:href="#a"/><use xlink:href="#b" x="-.004" y="15.172"/><use xlink:href="#1" y="2.171"/><use xlink:href="#2" y="4.342"/><use xlink:href="#3" y="6.513"/><use xlink:href="#4" y="8.684"/><use xlink:href="#5" y="13.026"/></svg><svg x="400"><use xlink:href="#a"/><use xlink:href="#b" x="-.004" y="21.685"/><use xlink:href="#1" y="2.171"/><use xlink:href="#2" y="4.342"/><use xlink:href="#3" y="6.513"/><use xlink:href="#4" y="8.684"/><use xlink:href="#5" y="13.026"/><use xlink:href="#6" y="17.368"/><use xlink:href="#7" y="19.539"/></svg><svg x="500"><use xlink:href="#a"/><use xlink:href="#b" x="-.004" y="28.198"/><use xlink:href="#1" y="2.171"/><use xlink:href="#2" y="4.342"/><use xlink:href="#3" y="6.513"/><use xlink:href="#4" y="8.684"/><use xlink:href="#5" y="13.026"/><use xlink:href="#6" y="17.368"/><use xlink:href="#7" y="19.539"/><use xlink:href="#8" y="21.71"/><use xlink:href="#9" y="23.881"/><use xlink:href="#10" y="26.052"/></svg><svg x="600"><use xlink:href="#a"/><use xlink:href="#b" x="-.004" y="32.54"/><use xlink:href="#1" y="2.171"/><use xlink:href="#2" y="4.342"/><use xlink:href="#3" y="6.513"/><use xlink:href="#4" y="8.684"/><use xlink:href="#5" y="13.026"/><use xlink:href="#6" y="17.368"/><use xlink:href="#7" y="19.539"/><use xlink:href="#8" y="21.71"/><use xlink:href="#9" y="23.881"/><use xlink:href="#10" y="26.052"/><use xlink:href="#11" y="30.394"/></svg><svg x="700"><use xlink:href="#a"/><use xlink:href="#b" x="-.004" y="36.882"/><use xlink:href="#1" y="2.171"/><use xlink:href="#2" y="4.342"/><use xlink:href="#3" y="6.513"/><use xlink:href="#4" y="8.684"/><use xlink:href="#5" y="13.026"/><use xlink:href="#6" y="17.368"/><use xlink:href="#7" y="19.539"/><use xlink:href="#8" y="21.71"/><use xlink:href="#9" y="23.881"/><use xlink:href="#10" y="26.052"/><use xlink:href="#11" y="30.394"/><use xlink:href="#12" y="34.736"/></svg><svg x="800"><use xlink:href="#a"/><use xlink:href="#b" x="-.004" y="39.053"/><use xlink:href="#1" y="2.171"/><use xlink:href="#2" y="4.342"/><use xlink:href="#3" y="6.513"/><use xlink:href="#4" y="8.684"/><use xlink:href="#5" y="13.026"/><use xlink:href="#6" y="17.368"/><use xlink:href="#7" y="19.539"/><use xlink:href="#8" y="21.71"/><use xlink:href="#9" y="23.881"/><use xlink:href="#10" y="26.052"/><use xlink:href="#11" y="30.394"/><use xlink:href="#12" y="34.736"/><use xlink:href="#13" y="36.907"/></svg><svg x="900"><use xlink:href="#a"/><use xlink:href="#b" x="-.004" y="43.395"/><use xlink:href="#1" y="2.171"/><use xlink:href="#2" y="4.342"/><use xlink:href="#3" y="6.513"/><use xlink:href="#4" y="8.684"/><use xlink:href="#5" y="13.026"/><use xlink:href="#6" y="17.368"/><use xlink:href="#7" y="19.539"/><use xlink:href="#8" y="21.71"/><use xlink:href="#9" y="23.881"/><use xlink:href="#10" y="26.052"/><use xlink:href="#11" y="30.394"/><use xlink:href="#12" y="34.736"/><use xlink:href="#13" y="36.907"/><use xlink:href="#14" y="41.249"/></svg><svg x="1000"><use xlink:href="#a"/><use xlink:href="#b" x="-.004" y="52.079"/><use xlink:href="#1" y="2.171"/><use xlink:href="#2" y="4.342"/><use xlink:href="#3" y="6.513"/><use xlink:href="#4" y="8.684"/><use xlink:href="#5" y="13.026"/><use xlink:href="#6" y="17.368"/><use xlink:href="#7" y="19.539"/><use xlink:href="#8" y="21.71"/><use xlink:href="#9" y="23.881"/><use xlink:href="#10" y="26.052"/><use xlink:href="#11" y="30.394"/><use xlink:href="#12" y="34.736"/><use xlink:href="#13" y="36.907"/><use xlink:href="#14" y="41.249"/><use xlink:href="#15" y="43.42"/><use xlink:href="#16" y="45.591"/><use xlink:href="#17" y="47.762"/><use xlink:href="#18" y="49.933"/></svg><svg x="1100"><use xlink:href="#a"/><use xlink:href="#b" x="-.004" y="56.421"/><use xlink:href="#1" y="2.171"/><use xlink:href="#2" y="4.342"/><use xlink:href="#3" y="6.513"/><use xlink:href="#4" y="8.684"/><use xlink:href="#5" y="13.026"/><use xlink:href="#6" y="17.368"/><use xlink:href="#7" y="19.539"/><use xlink:href="#8" y="21.71"/><use xlink:href="#9" y="23.881"/><use xlink:href="#10" y="26.052"/><use xlink:href="#11" y="30.394"/><use xlink:href="#12" y="34.736"/><use xlink:href="#13" y="36.907"/><use xlink:href="#14" y="41.249"/><use xlink:href="#15" y="43.42"/><use xlink:href="#16" y="45.591"/><use xlink:href="#17" y="47.762"/><use xlink:href="#18" y="49.933"/><use xlink:href="#19" y="54.275"/></svg><svg x="1200"><use xlink:href="#a"/><use xlink:href="#b" x="-.004" y="60.763"/><use xlink:href="#1" y="2.171"/><use xlink:href="#2" y="4.342"/><use xlink:href="#3" y="6.513"/><use xlink:href="#4" y="8.684"/><use xlink:href="#5" y="13.026"/><use xlink:href="#6" y="17.368"/><use xlink:href="#7" y="19.539"/><use xlink:href="#8" y="21.71"/><use xlink:href="#9" y="23.881"/><use xlink:href="#10" y="26.052"/><use xlink:href="#11" y="30.394"/><use xlink:href="#12" y="34.736"/><use xlink:href="#13" y="36.907"/><use xlink:href="#14" y="41.249"/><use xlink:href="#15" y="43.42"/><use xlink:href="#16" y="45.591"/><use xlink:href="#17" y="47.762"/><use xlink:href="#18" y="49.933"/><use xlink:href="#19" y="54.275"/><use xlink:href="#20" y="58.617"/></svg><svg x="1300"><use xlink:href="#a"/><use xlink:href="#b" x="-.004" y="62.934"/><use xlink:href="#1" y="2.171"/><use xlink:href="#2" y="4.342"/><use xlink:href="#3" y="6.513"/><use xlink:href="#4" y="8.684"/><use xlink:href="#5" y="13.026"/><use xlink:href="#6" y="17.368"/><use xlink:href="#7" y="19.539"/><use xlink:href="#8" y="21.71"/><use xlink:href="#9" y="23.881"/><use xlink:href="#10" y="26.052"/><use xlink:href="#11" y="30.394"/><use xlink:href="#12" y="34.736"/><use xlink:href="#13" y="36.907"/><use xlink:href="#14" y="41.249"/><use xlink:href="#15" y="43.42"/><use xlink:href="#16" y="45.591"/><use xlink:href="#17" y="47.762"/><use xlink:href="#18" y="49.933"/><use xlink:href="#19" y="54.275"/><use xlink:href="#20" y="58.617"/><use xlink:href="#21" y="60.788"/></svg><svg x="1400"><use xlink:href="#a"/><use xlink:href="#b" x="-.004" y="67.276"/><use xlink:href="#1" y="2.171"/><use xlink:href="#2" y="4.342"/><use xlink:href="#3" y="6.513"/><use xlink:href="#4" y="8.684"/><use xlink:href="#5" y="13.026"/><use xlink:href="#6" y="17.368"/><use xlink:href="#7" y="19.539"/><use xlink:href="#8" y="21.71"/><use xlink:href="#9" y="23.881"/><use xlink:href="#10" y="26.052"/><use xlink:href="#11" y="30.394"/><use xlink:href="#12" y="34.736"/><use xlink:href="#13" y="36.907"/><use xlink:href="#14" y="41.249"/><use xlink:href="#15" y="43.42"/><use xlink:href="#16" y="45.591"/><use xlink:href="#17" y="47.762"/><use xlink:href="#18" y="49.933"/><use xlink:href="#19" y="54.275"/><use xlink:href="#20" y="58.617"/><use xlink:href="#21" y="60.788"/><use xlink:href="#22" y="65.13"/></svg><svg x="1500"><use xlink:href="#a"/><use xlink:href="#b" x="-.004" y="69.447"/><use xlink:href="#1" y="2.171"/><use xlink:href="#2" y="4.342"/><use xlink:href="#3" y="6.513"/><use xlink:href="#4" y="8.684"/><use xlink:href="#5" y="13.026"/><use xlink:href="#6" y="17.368"/><use xlink:href="#7" y="19.539"/><use xlink:href="#8" y="21.71"/><use xlink:href="#9" y="23.881"/><use xlink:href="#10" y="26.052"/><use xlink:href="#11" y="30.394"/><use xlink:href="#12" y="34.736"/><use xlink:href="#13" y="36.907"/><use xlink:href="#14" y="41.249"/><use xlink:href="#15" y="43.42"/><use xlink:href="#16" y="45.591"/><use xlink:href="#17" y="47.762"/><use xlink:href="#18" y="49.933"/><use xlink:href="#19" y="54.275"/><use xlink:href="#20" y="58.617"/><use xlink:href="#21" y="60.788"/><use xlink:href="#22" y="65.13"/><use xlink:href="#23" y="67.301"/></svg><svg x="1600"><use xlink:href="#a"/><use xlink:href="#b" x="-.004" y="71.618"/><use xlink:href="#1" y="2.171"/><use xlink:href="#2" y="4.342"/><use xlink:href="#3" y="6.513"/><use xlink:href="#4" y="8.684"/><use xlink:href="#5" y="13.026"/><use xlink:href="#6" y="17.368"/><use xlink:href="#7" y="19.539"/><use xlink:href="#8" y="21.71"/><use xlink:href="#9" y="23.881"/><use xlink:href="#10" y="26.052"/><use xlink:href="#11" y="30.394"/><use xlink:href="#12" y="34.736"/><use xlink:href="#13" y="36.907"/><use xlink:href="#14" y="41.249"/><use xlink:href="#15" y="43.42"/><use xlink:href="#16" y="45.591"/><use xlink:href="#17" y="47.762"/><use xlink:href="#18" y="49.933"/><use xlink:href="#19" y="54.275"/><use xlink:href="#20" y="58.617"/><use xlink:href="#21" y="60.788"/><use xlink:href="#22" y="65.13"/><use xlink:href="#23" y="67.301"/></svg><svg x="1700"><use xlink:href="#a"/><use xlink:href="#b" x="-.004" y="73.789"/><use xlink:href="#1" y="2.171"/><use xlink:href="#2" y="4.342"/><use xlink:href="#3" y="6.513"/><use xlink:href="#4" y="8.684"/><use xlink:href="#5" y="13.026"/><use xlink:href="#6" y="17.368"/><use xlink:href="#7" y="19.539"/><use xlink:href="#8" y="21.71"/><use xlink:href="#9" y="23.881"/><use xlink:href="#10" y="26.052"/><use xlink:href="#11" y="30.394"/><use xlink:href="#12" y="34.736"/><use xlink:href="#13" y="36.907"/><use xlink:href="#14" y="41.249"/><use xlink:href="#15" y="43.42"/><use xlink:href="#16" y="45.591"/><use xlink:href="#17" y="47.762"/><use xlink:href="#18" y="49.933"/><use xlink:href="#19" y="54.275"/><use xlink:href="#20" y="58.617"/><use xlink:href="#21" y="60.788"/><use xlink:href="#22" y="65.13"/><use xlink:href="#23" y="67.301"/><use xlink:href="#24" y="71.643"/></svg><svg x="1800"><use xlink:href="#a"/><use xlink:href="#b" x="-.004" y="75.96"/><use xlink:href="#1"/><use xlink:href="#2" y="2.171"/><use xlink:href="#3" y="4.342"/><use xlink:href="#4" y="6.513"/><use xlink:href="#5" y="10.855"/><use xlink:href="#6" y="15.197"/><use xlink:href="#7" y="17.368"/><use xlink:href="#8" y="19.539"/><use xlink:href="#9" y="21.71"/><use xlink:href="#10" y="23.881"/><use xlink:href="#11" y="28.223"/><use xlink:href="#12" y="32.565"/><use xlink:href="#13" y="34.736"/><use xlink:href="#14" y="39.078"/><use xlink:href="#15" y="41.249"/><use xlink:href="#16" y="43.42"/><use xlink:href="#17" y="45.591"/><use xlink:href="#18" y="47.762"/><use xlink:href="#19" y="52.104"/><use xlink:href="#20" y="56.446"/><use xlink:href="#21" y="58.617"/><use xlink:href="#22" y="62.959"/><use xlink:href="#23" y="65.13"/><use xlink:href="#24" y="69.472"/><use xlink:href="#25" y="73.814"/></svg><svg x="1900"><use xlink:href="#a"/><use xlink:href="#b" x="-.004" y="75.96"/><use xlink:href="#3"/><use xlink:href="#4" y="2.171"/><use xlink:href="#5" y="6.513"/><use xlink:href="#6" y="10.855"/><use xlink:href="#7" y="13.026"/><use xlink:href="#8" y="15.197"/><use xlink:href="#9" y="17.368"/><use xlink:href="#10" y="19.539"/><use xlink:href="#11" y="23.881"/><use xlink:href="#12" y="28.223"/><use xlink:href="#13" y="30.394"/><use xlink:href="#14" y="34.736"/><use xlink:href="#15" y="36.907"/><use xlink:href="#16" y="39.078"/><use xlink:href="#17" y="41.249"/><use xlink:href="#18" y="43.42"/><use xlink:href="#19" y="47.762"/><use xlink:href="#20" y="52.104"/><use xlink:href="#21" y="54.275"/><use xlink:href="#22" y="58.617"/><use xlink:href="#23" y="60.788"/><use xlink:href="#24" y="65.13"/><use xlink:href="#25" y="69.472"/><use xlink:href="#26" y="71.643"/><use xlink:href="#27" y="73.814"/></svg><svg x="2000"><use xlink:href="#a"/><use xlink:href="#b" x="-.004" y="75.96"/><use xlink:href="#4"/><use xlink:href="#5" y="4.342"/><use xlink:href="#6" y="8.684"/><use xlink:href="#7" y="10.855"/><use xlink:href="#8" y="13.026"/><use xlink:href="#9" y="15.197"/><use xlink:href="#10" y="17.368"/><use xlink:href="#11" y="21.71"/><use xlink:href="#12" y="26.052"/><use xlink:href="#13" y="28.223"/><use xlink:href="#14" y="32.565"/><use xlink:href="#15" y="34.736"/><use xlink:href="#16" y="36.907"/><use xlink:href="#17" y="39.078"/><use xlink:href="#18" y="41.249"/><use xlink:href="#19" y="45.591"/><use xlink:href="#20" y="49.933"/><use xlink:href="#21" y="52.104"/><use xlink:href="#22" y="56.446"/><use xlink:href="#23" y="58.617"/><use xlink:href="#24" y="62.959"/><use xlink:href="#25" y="67.301"/><use xlink:href="#26" y="69.472"/><use xlink:href="#27" y="71.643"/><use xlink:href="#28" y="73.814"/></svg><svg x="2100"><use xlink:href="#a"/><use xlink:href="#b" x="-.004" y="75.96"/><use xlink:href="#9"/><use xlink:href="#10" y="2.171"/><use xlink:href="#11" y="6.513"/><use xlink:href="#12" y="10.855"/><use xlink:href="#13" y="13.026"/><use xlink:href="#14" y="17.368"/><use xlink:href="#15" y="19.539"/><use xlink:href="#16" y="21.71"/><use xlink:href="#17" y="23.881"/><use xlink:href="#18" y="26.052"/><use xlink:href="#19" y="30.394"/><use xlink:href="#20" y="34.736"/><use xlink:href="#21" y="36.907"/><use xlink:href="#22" y="41.249"/><use xlink:href="#23" y="43.42"/><use xlink:href="#24" y="47.762"/><use xlink:href="#25" y="52.104"/><use xlink:href="#26" y="54.275"/><use xlink:href="#27" y="56.446"/><use xlink:href="#28" y="58.617"/><use xlink:href="#29" y="60.788"/><use xlink:href="#30" y="62.959"/><use xlink:href="#31" y="65.13"/><use xlink:href="#32" y="67.301"/><use xlink:href="#33" y="69.472"/><use xlink:href="#34" y="71.643"/><use xlink:href="#35" y="73.814"/></svg><svg x="2200"><use xlink:href="#a"/><use xlink:href="#b" x="-.004" y="75.96"/><use xlink:href="#10"/><use xlink:href="#11" y="4.342"/><use xlink:href="#12" y="8.684"/><use xlink:href="#13" y="10.855"/><use xlink:href="#14" y="15.197"/><use xlink:href="#15" y="17.368"/><use xlink:href="#16" y="19.539"/><use xlink:href="#17" y="21.71"/><use xlink:href="#18" y="23.881"/><use xlink:href="#19" y="28.223"/><use xlink:href="#20" y="32.565"/><use xlink:href="#21" y="34.736"/><use xlink:href="#22" y="39.078"/><use xlink:href="#23" y="41.249"/><use xlink:href="#24" y="45.591"/><use xlink:href="#25" y="49.933"/><use xlink:href="#26" y="52.104"/><use xlink:href="#27" y="54.275"/><use xlink:href="#28" y="56.446"/><use xlink:href="#29" y="58.617"/><use xlink:href="#30" y="60.788"/><use xlink:href="#31" y="62.959"/><use xlink:href="#32" y="65.13"/><use xlink:href="#33" y="67.301"/><use xlink:href="#34" y="69.472"/><use xlink:href="#35" y="71.643"/><use xlink:href="#36" y="73.814"/></svg><svg x="2300"><use xlink:href="#a"/><use xlink:href="#b" x="-.004" y="75.96"/><use xlink:href="#14"/><use xlink:href="#15" y="2.171"/><use xlink:href="#16" y="4.342"/><use xlink:href="#17" y="6.513"/><use xlink:href="#18" y="8.684"/><use xlink:href="#19" y="13.026"/><use xlink:href="#20" y="17.368"/><use xlink:href="#21" y="19.539"/><use xlink:href="#22" y="23.881"/><use xlink:href="#23" y="26.052"/><use xlink:href="#24" y="30.394"/><use xlink:href="#25" y="34.736"/><use xlink:href="#26" y="36.907"/><use xlink:href="#27" y="39.078"/><use xlink:href="#28" y="41.249"/><use xlink:href="#29" y="43.42"/><use xlink:href="#30" y="45.591"/><use xlink:href="#31" y="47.762"/><use xlink:href="#32" y="49.933"/><use xlink:href="#33" y="52.104"/><use xlink:href="#34" y="54.275"/><use xlink:href="#35" y="56.446"/><use xlink:href="#36" y="58.617"/><use xlink:href="#29" y="60.788"/><use xlink:href="#37" y="62.959"/><use xlink:href="#38" y="65.13"/><use xlink:href="#39" y="67.301"/><use xlink:href="#40" y="69.472"/><use xlink:href="#41" y="71.643"/><use xlink:href="#42" y="73.814"/></svg><svg x="2400"><use xlink:href="#a"/><use xlink:href="#b" x="-.004" y="75.96"/><use xlink:href="#16"/><use xlink:href="#17" y="2.171"/><use xlink:href="#18" y="4.342"/><use xlink:href="#19" y="8.684"/><use xlink:href="#20" y="13.026"/><use xlink:href="#21" y="15.197"/><use xlink:href="#22" y="19.539"/><use xlink:href="#23" y="21.71"/><use xlink:href="#24" y="26.052"/><use xlink:href="#25" y="30.394"/><use xlink:href="#26" y="32.565"/><use xlink:href="#27" y="34.736"/><use xlink:href="#28" y="36.907"/><use xlink:href="#29" y="39.078"/><use xlink:href="#30" y="41.249"/><use xlink:href="#31" y="43.42"/><use xlink:href="#32" y="45.591"/><use xlink:href="#33" y="47.762"/><use xlink:href="#34" y="49.933"/><use xlink:href="#35" y="52.104"/><use xlink:href="#36" y="54.275"/><use xlink:href="#29" y="56.446"/><use xlink:href="#37" y="58.617"/><use xlink:href="#38" y="60.788"/><use xlink:href="#39" y="62.959"/><use xlink:href="#40" y="65.13"/><use xlink:href="#41" y="67.301"/><use xlink:href="#42" y="69.472"/><use xlink:href="#43" y="73.814"/></svg><svg x="2500"><use xlink:href="#a"/><use xlink:href="#b" x="-.004" y="75.96"/><use xlink:href="#18"/><use xlink:href="#19" y="4.342"/><use xlink:href="#20" y="8.684"/><use xlink:href="#21" y="10.855"/><use xlink:href="#22" y="15.197"/><use xlink:href="#23" y="17.368"/><use xlink:href="#24" y="21.71"/><use xlink:href="#25" y="26.052"/><use xlink:href="#26" y="28.223"/><use xlink:href="#27" y="30.394"/><use xlink:href="#28" y="32.565"/><use xlink:href="#29" y="34.736"/><use xlink:href="#30" y="36.907"/><use xlink:href="#31" y="39.078"/><use xlink:href="#32" y="41.249"/><use xlink:href="#33" y="43.42"/><use xlink:href="#34" y="45.591"/><use xlink:href="#35" y="47.762"/><use xlink:href="#36" y="49.933"/><use xlink:href="#29" y="52.104"/><use xlink:href="#37" y="54.275"/><use xlink:href="#38" y="56.446"/><use xlink:href="#39" y="58.617"/><use xlink:href="#40" y="60.788"/><use xlink:href="#41" y="62.959"/><use xlink:href="#42" y="65.13"/><use xlink:href="#43" y="69.472"/><use xlink:href="#44" y="73.814"/></svg><svg x="2600"><use xlink:href="#a"/><use xlink:href="#b" x="-.004" y="75.96"/><use xlink:href="#19" y="2.171"/><use xlink:href="#20" y="6.513"/><use xlink:href="#21" y="8.684"/><use xlink:href="#22" y="13.026"/><use xlink:href="#23" y="15.197"/><use xlink:href="#24" y="19.539"/><use xlink:href="#25" y="23.881"/><use xlink:href="#26" y="26.052"/><use xlink:href="#27" y="28.223"/><use xlink:href="#28" y="30.394"/><use xlink:href="#29" y="32.565"/><use xlink:href="#30" y="34.736"/><use xlink:href="#31" y="36.907"/><use xlink:href="#32" y="39.078"/><use xlink:href="#33" y="41.249"/><use xlink:href="#34" y="43.42"/><use xlink:href="#35" y="45.591"/><use xlink:href="#36" y="47.762"/><use xlink:href="#29" y="49.933"/><use xlink:href="#37" y="52.104"/><use xlink:href="#38" y="54.275"/><use xlink:href="#39" y="56.446"/><use xlink:href="#40" y="58.617"/><use xlink:href="#41" y="60.788"/><use xlink:href="#42" y="62.959"/><use xlink:href="#43" y="67.301"/><use xlink:href="#44" y="71.643"/><use xlink:href="#45" y="73.814"/></svg><svg x="2700"><use xlink:href="#a"/><use xlink:href="#b" x="-.004" y="75.96"/><use xlink:href="#20" y="2.171"/><use xlink:href="#21" y="4.342"/><use xlink:href="#22" y="8.684"/><use xlink:href="#23" y="10.855"/><use xlink:href="#24" y="15.197"/><use xlink:href="#25" y="19.539"/><use xlink:href="#26" y="21.71"/><use xlink:href="#27" y="23.881"/><use xlink:href="#28" y="26.052"/><use xlink:href="#29" y="28.223"/><use xlink:href="#30" y="30.394"/><use xlink:href="#31" y="32.565"/><use xlink:href="#32" y="34.736"/><use xlink:href="#33" y="36.907"/><use xlink:href="#34" y="39.078"/><use xlink:href="#35" y="41.249"/><use xlink:href="#36" y="43.42"/><use xlink:href="#29" y="45.591"/><use xlink:href="#37" y="47.762"/><use xlink:href="#38" y="49.933"/><use xlink:href="#39" y="52.104"/><use xlink:href="#40" y="54.275"/><use xlink:href="#41" y="56.446"/><use xlink:href="#42" y="58.617"/><use xlink:href="#43" y="62.959"/><use xlink:href="#44" y="67.301"/><use xlink:href="#45" y="69.472"/><use xlink:href="#1" y="73.814"/></svg><svg x="2800"><use xlink:href="#a"/><use xlink:href="#b" x="-.004" y="75.96"/><use xlink:href="#22" y="2.171"/><use xlink:href="#23" y="4.342"/><use xlink:href="#24" y="8.684"/><use xlink:href="#25" y="13.026"/><use xlink:href="#26" y="15.197"/><use xlink:href="#27" y="17.368"/><use xlink:href="#28" y="19.539"/><use xlink:href="#29" y="21.71"/><use xlink:href="#30" y="23.881"/><use xlink:href="#31" y="26.052"/><use xlink:href="#32" y="28.223"/><use xlink:href="#33" y="30.394"/><use xlink:href="#34" y="32.565"/><use xlink:href="#35" y="34.736"/><use xlink:href="#36" y="36.907"/><use xlink:href="#29" y="39.078"/><use xlink:href="#37" y="41.249"/><use xlink:href="#38" y="43.42"/><use xlink:href="#39" y="45.591"/><use xlink:href="#40" y="47.762"/><use xlink:href="#41" y="49.933"/><use xlink:href="#42" y="52.104"/><use xlink:href="#43" y="56.446"/><use xlink:href="#44" y="60.788"/><use xlink:href="#45" y="62.959"/><use xlink:href="#1" y="67.301"/><use xlink:href="#46" y="69.472"/><use xlink:href="#47" y="71.643"/><use xlink:href="#48" y="73.814"/></svg><svg x="2900"><use xlink:href="#a"/><use xlink:href="#b" x="-.004" y="75.96"/><use xlink:href="#24"/><use xlink:href="#25" y="4.342"/><use xlink:href="#26" y="6.513"/><use xlink:href="#27" y="8.684"/><use xlink:href="#28" y="10.855"/><use xlink:href="#29" y="13.026"/><use xlink:href="#30" y="15.197"/><use xlink:href="#31" y="17.368"/><use xlink:href="#32" y="19.539"/><use xlink:href="#33" y="21.71"/><use xlink:href="#34" y="23.881"/><use xlink:href="#35" y="26.052"/><use xlink:href="#36" y="28.223"/><use xlink:href="#29" y="30.394"/><use xlink:href="#37" y="32.565"/><use xlink:href="#38" y="34.736"/><use xlink:href="#39" y="36.907"/><use xlink:href="#40" y="39.078"/><use xlink:href="#41" y="41.249"/><use xlink:href="#42" y="43.42"/><use xlink:href="#43" y="47.762"/><use xlink:href="#44" y="52.104"/><use xlink:href="#45" y="54.275"/><use xlink:href="#1" y="58.617"/><use xlink:href="#46" y="60.788"/><use xlink:href="#47" y="62.959"/><use xlink:href="#48" y="65.13"/><use xlink:href="#49" y="67.301"/><use xlink:href="#50" y="69.472"/><use xlink:href="#47" y="71.643"/><use xlink:href="#51" y="73.814"/></svg><svg x="3000"><use xlink:href="#a"/><use xlink:href="#b" x="-.004" y="75.96"/><use xlink:href="#25" y="2.171"/><use xlink:href="#26" y="4.342"/><use xlink:href="#27" y="6.513"/><use xlink:href="#28" y="8.684"/><use xlink:href="#29" y="10.855"/><use xlink:href="#30" y="13.026"/><use xlink:href="#31" y="15.197"/><use xlink:href="#32" y="17.368"/><use xlink:href="#33" y="19.539"/><use xlink:href="#34" y="21.71"/><use xlink:href="#35" y="23.881"/><use xlink:href="#36" y="26.052"/><use xlink:href="#29" y="28.223"/><use xlink:href="#37" y="30.394"/><use xlink:href="#38" y="32.565"/><use xlink:href="#39" y="34.736"/><use xlink:href="#40" y="36.907"/><use xlink:href="#41" y="39.078"/><use xlink:href="#42" y="41.249"/><use xlink:href="#43" y="45.591"/><use xlink:href="#44" y="49.933"/><use xlink:href="#45" y="52.104"/><use xlink:href="#1" y="56.446"/><use xlink:href="#46" y="58.617"/><use xlink:href="#47" y="60.788"/><use xlink:href="#48" y="62.959"/><use xlink:href="#49" y="65.13"/><use xlink:href="#50" y="67.301"/><use xlink:href="#47" y="69.472"/><use xlink:href="#51" y="71.643"/><use xlink:href="#4" y="73.814"/></svg></svg></g></g></svg></svg>